HIERARCHY
ROOT Hips
{
	OFFSET	0	0	0
	CHANNELS 6  Xposition Yposition Zposition Xrotation Yrotation Zrotation
	JOINT Spine
	{
		OFFSET	0	7.36801	1.47921
		CHANNELS 3  Xrotation Yrotation Zrotation
		JOINT Spine1
		{
			OFFSET	0	12.6146	-2.2526
			CHANNELS 3  Xrotation Yrotation Zrotation
			JOINT Spine2
			{
				OFFSET	0	9.56229	1.02493
				CHANNELS 3  Xrotation Yrotation Zrotation
				JOINT Spine3
				{
					OFFSET	0	11.4432	3.40143
					CHANNELS 3  Xrotation Yrotation Zrotation
					JOINT Spine4
					{
						OFFSET	0	16.9396	-1.7345
						CHANNELS 3  Xrotation Yrotation Zrotation
						JOINT Neck
						{
							OFFSET	0	8.08684	-5.66529
							CHANNELS 3  Xrotation Yrotation Zrotation
							JOINT Head
							{
								OFFSET	0	9.70872	-2.90586
								CHANNELS 3  Xrotation Yrotation Zrotation
								End Site
								{
									OFFSET	0	20.2509	-0.979882
								}
							}
						}
					}
					JOINT LeftShoulder
					{
						OFFSET	-4.86562	20.5888	-9.70871
						CHANNELS 3  Xrotation Yrotation Zrotation
						JOINT LeftArm
						{
							OFFSET	-10.6038	-2.90585	3.72808
							CHANNELS 3  Xrotation Yrotation Zrotation
							JOINT LeftForeArm
							{
								OFFSET	-30.8337	-1.4073	2.20088
								CHANNELS 3  Xrotation Yrotation Zrotation
								JOINT LeftHand
								{
									OFFSET	-25.1332	-1.73684	1.79398
									CHANNELS 3  Xrotation Yrotation Zrotation
									End Site
									{
										OFFSET	-9.17235	-0.633862	0.65467
									}
								}
							}
						}
					}
					JOINT RightShoulder
					{
						OFFSET	4.86562	20.5888	-9.70871
						CHANNELS 3  Xrotation Yrotation Zrotation
						JOINT RightArm
						{
							OFFSET	10.6038	-2.90585	3.72808
							CHANNELS 3  Xrotation Yrotation Zrotation
							JOINT RightForeArm
							{
								OFFSET	30.8337	-1.4073	2.20088
								CHANNELS 3  Xrotation Yrotation Zrotation
								JOINT RightHand
								{
									OFFSET	25.1332	-1.73684	1.79398
									CHANNELS 3  Xrotation Yrotation Zrotation
									End Site
									{
										OFFSET	9.17235	-0.633862	0.65467
									}
								}
							}
						}
					}
				}
			}
		}
	}
	JOINT LeftUpLeg
	{
		OFFSET	-10.0134	-3.684	-0.739604
		CHANNELS 3  Xrotation Yrotation Zrotation
		JOINT LeftLeg
		{
			OFFSET	-2.30148	-45.0967	-0.70496
			CHANNELS 3  Xrotation Yrotation Zrotation
			JOINT LeftFoot
			{
				OFFSET	-2.24997	-41.4741	3.56677
				CHANNELS 3  Xrotation Yrotation Zrotation
				JOINT LeftToeBase
				{
					OFFSET	0	-5.07523	-13.4798
					CHANNELS 3  Xrotation Yrotation Zrotation
					End Site
					{
						OFFSET	0	-2.03009	-8.12037
					}
				}
			}
		}
	}
	JOINT RightUpLeg
	{
		OFFSET	10.0134	-3.684	-0.739604
		CHANNELS 3  Xrotation Yrotation Zrotation
		JOINT RightLeg
		{
			OFFSET	2.30148	-45.0967	-0.70496
			CHANNELS 3  Xrotation Yrotation Zrotation
			JOINT RightFoot
			{
				OFFSET	2.24997	-41.4741	3.56677
				CHANNELS 3  Xrotation Yrotation Zrotation
				JOINT RightToeBase
				{
					OFFSET	0	-5.07523	-13.4798
					CHANNELS 3  Xrotation Yrotation Zrotation
					End Site
					{
						OFFSET	0	-2.03009	-8.12037
					}
				}
			}
		}
	}
}
MOTION
Frames: 9
Frame Time: 0.020408
 0 -12.0709 2.70641 -0 0 -0 -0 0 -0 -0 0 -0 -0 0 -0 -0 0 -0 -0 0 -0 -0 0 -0 -0 0 -0 -0 0 -0 -0 0 -0 -0 0 -0 -0 0 -0 -0 0 -0 -0 0 -0 -0 0 -0 -0 0 -0 -0 0 -0 -0 0 -0 -0 0 -0 -0 0 -0 -0 0 -0 -0 0 -0 -0 0 -0 -0 0 -0
 -218.891 93.4342 343.746 28.9297 -17.3458 37.3151 0.000845388 0.00647802 -7.43514 170.891 179.987 167.608 171.614 179.962 167.608 176.078 179.994 172.565 171.949 179.653 177.546 165.622 177.554 174.862 175.657 172.216 179.54 1.37735 -12.0995 2.88683 43.9306 -58.4035 90.6306 177.404 -129.859 176.184 -0 3.89503 10.5675 1.35412 18.8503 -2.90962 158.575 129.961 138.053 32.4749 77.7771 -30.1385 -0 31.6935 6.26279 167.533 -153.134 153.63 139.246 -166.847 179.95 23.7144 0.000260874 -5.41932 5.35919 0 0 144.513 -177.082 146.38 4.58004 -11.8907 0.233416 179.712 -179.99 -176.016 179.62 180 -180
 -218.921 93.4274 343.777 28.8004 -17.1637 37.2378 0.00108274 0.00827856 -7.45137 170.903 179.984 167.581 171.647 179.951 167.581 176.145 179.992 172.549 171.816 179.646 177.542 165.233 177.62 174.982 175.541 172.469 179.554 1.42731 -12.8059 3.0015 44.318 -59.3916 90.8355 177.247 -130.255 176.046 -0 3.70913 10.5536 1.2502 18.3974 -2.6829 158.605 130.151 137.835 33.5025 77.7765 -31.1794 -0 31.7765 6.50134 167.82 -152.682 153.83 139.363 -166.596 -179.986 23.4285 -0.012691 -5.47422 5.33636 0 0 144.557 -176.889 146.328 4.57439 -11.9592 0.249176 179.682 -179.984 -175.987 179.62 180 -180
 -219.061 93.4324 343.795 28.6834 -16.8482 37.119 0.000740961 0.0056622 -7.45541 170.891 179.989 167.574 171.652 179.967 167.574 176.197 179.994 172.545 171.673 179.64 177.541 164.836 177.667 175.109 175.423 172.689 179.573 1.40691 -13.778 2.97119 44.6128 -60.7966 90.8652 177.119 -130.445 175.945 -0 3.47863 10.5581 1.2321 17.916 -2.64041 158.703 130.473 137.735 34.3346 77.6437 -32.0461 -0 31.7752 6.79909 168.098 -152.303 154.059 139.486 -166.423 179.895 22.939 -0.0181538 -5.57388 5.30944 0 0 144.48 -176.67 146.359 4.56768 -12.0676 0.185602 179.637 -179.989 -175.963 179.62 180 -180
 -219.115 93.4347 343.83 28.6131 -16.6892 37.0656 0.000683692 0.00522418 -7.45596 170.884 179.99 167.573 171.655 179.969 167.573 176.223 179.995 172.544 171.599 179.637 177.541 164.631 177.757 175.157 175.363 172.917 179.564 1.41572 -14.6268 3.00021 44.8266 -62.126 90.8556 176.974 -130.661 175.824 -0 3.2942 10.5676 1.31274 17.5256 -2.8101 159.003 130.811 137.722 35.1269 77.4786 -32.9291 -0 31.7272 7.13455 168.183 -151.957 154.106 139.781 -166.315 179.788 22.546 -0.0290951 -5.71498 5.28298 0 0 144.421 -176.499 146.366 4.55271 -12.1642 0.130292 179.632 -179.987 -175.938 179.62 180 -180
 -219.241 93.4325 343.861 28.5698 -16.5445 37.0077 0.000859071 0.00655968 -7.46113 170.878 179.987 167.565 171.658 179.961 167.565 176.241 179.993 172.539 171.545 179.634 177.54 164.483 177.846 175.258 175.321 173.166 179.565 1.40806 -15.4019 2.99283 45.3052 -63.4174 90.9335 176.817 -130.861 175.735 -0 3.14534 10.5564 1.35794 17.2099 -2.90411 159.383 131.094 137.663 35.5674 77.2007 -33.3665 -0 31.5762 7.48722 168.168 -151.579 154.203 139.833 -166.24 179.766 22.2266 -0.0318767 -5.85005 5.26072 0 0 144.362 -176.344 146.373 4.55194 -12.2439 0.125356 179.645 -179.984 -175.918 179.62 180 -180
 -219.325 93.4347 343.793 28.5504 -16.5184 37.0304 0.000443592 0.003382 -7.47242 170.87 179.993 167.546 171.651 179.98 167.546 176.247 179.997 172.528 171.518 179.632 177.536 164.41 177.988 175.227 175.302 173.428 179.527 1.42798 -16.0997 3.04283 45.2317 -64.6872 90.4646 176.587 -131.164 175.572 -0 3.04352 10.5385 1.37276 17.0449 -2.9343 160.158 131.257 137.328 35.7715 76.8678 -33.4643 -0 31.3605 7.84149 168.087 -151.171 154.36 139.874 -166.198 179.747 21.6361 -0.0183335 -5.99592 5.24012 0 0 144.311 -176.159 146.364 4.53827 -12.2918 0.108699 179.591 -179.998 -175.905 179.62 180 -180
 -219.44 93.441 343.323 28.5307 -16.4913 37.1258 0.00105652 0.00802066 -7.50405 170.87 179.984 167.493 171.655 179.953 167.493 176.247 179.992 172.496 171.515 179.631 177.526 164.399 178.17 175.153 175.303 173.736 179.471 1.42161 -16.9157 3.03755 45.5757 -65.8685 90.6847 176.353 -131.258 175.384 -0 2.92599 10.534 1.4159 17.2022 -3.0281 161.1 131.444 137.246 34.799 76.2125 -32.3643 -0 31.0405 8.20414 167.811 -150.784 154.616 139.532 -166.281 179.703 20.8328 0.021975 -6.17228 5.22053 0 0 144.26 -176.022 146.371 4.53476 -12.3581 0.0561145 179.503 -179.998 -175.894 179.62 180 -180
 -219.628 93.4379 343.035 28.4709 -16.4543 37.2299 0.000557351 0.00422016 -7.52343 170.869 179.992 167.461 171.647 179.975 167.461 176.233 179.996 172.477 171.547 179.631 177.519 164.484 178.361 175.02 175.333 174.011 179.402 1.44351 -17.815 3.09297 45.5733 -67.5081 90.7045 176.161 -131.293 175.233 -0 2.8043 10.6007 1.39052 17.3341 -2.97499 161.582 131.843 137.578 34.2164 75.7277 -31.7255 -0 30.6904 8.54385 167.637 -150.34 154.794 139.225 -166.379 179.657 21.0651 0.0484638 -6.45284 5.20358 0 0 144.24 -175.892 146.397 4.52281 -12.4061 0.0147097 179.448 -179.993 -175.879 179.62 180 -180
